<?xml version="1.0" encoding="utf-8"?>
<!-- Generator: Adobe Illustrator 27.2.0, SVG Export Plug-In . SVG Version: 6.00 Build 0)  -->
<svg version="1.1" id="Layer_1" xmlns="http://www.w3.org/2000/svg" xmlns:xlink="http://www.w3.org/1999/xlink" x="0px" y="0px"
	 viewBox="0 0 104.6 34.1" style="enable-background:new 0 0 104.6 34.1;" xml:space="preserve">
<style type="text/css">
	.st0{fill:#222125;}
	.st1{fill-rule:evenodd;clip-rule:evenodd;fill:#577E79;}
	.st2{fill-rule:evenodd;clip-rule:evenodd;fill:#D54B45;}
	.st3{fill-rule:evenodd;clip-rule:evenodd;fill:#222125;}
	.st4{fill-rule:evenodd;clip-rule:evenodd;fill:#F2AB60;}
</style>
<polygon class="st0" points="59.4,4.7 61.7,4.7 61.7,16 59.2,16 59.2,9 56.2,13.6 54.8,13.6 51.8,9 51.8,16 49.4,16 49.4,4.7 
	51.7,4.7 55.5,10.5 "/>
<path class="st0" d="M63.7,12.1c0-0.7,0.1-1.3,0.4-1.9c0.2-0.6,0.6-1,1-1.3c0.4-0.3,0.8-0.6,1.3-0.7S67.2,8,67.7,8
	c0.8,0,1.4,0.1,2,0.4c0.6,0.3,1,0.7,1.2,1.1c0.3,0.5,0.5,1,0.6,1.6c0.1,0.6,0.1,1.1-0.1,1.7h-5.5c0.1,0.5,0.4,0.9,0.9,1.2
	s1.1,0.4,1.8,0.4c0.8,0,1.6-0.2,2.3-0.5v1.8c-0.8,0.3-1.7,0.5-2.8,0.5c-1.3,0-2.4-0.4-3.2-1.1C64.1,14.4,63.7,13.4,63.7,12.1
	L63.7,12.1z M69.4,11.4c0.1-0.4-0.1-0.7-0.3-1.1c-0.3-0.4-0.7-0.6-1.3-0.6c-0.5,0-0.9,0.1-1.3,0.4s-0.5,0.7-0.6,1.2H69.4L69.4,11.4z
	"/>
<path class="st0" d="M73.4,4.7h2.2V9C76.3,8.3,77.1,8,78.2,8c1.2,0,2.1,0.4,2.8,1.2s1,1.8,1,2.9s-0.3,2.1-1,2.9
	c-0.7,0.8-1.6,1.2-2.8,1.2c-1.2,0-2.2-0.4-2.8-1.4V16h-2L73.4,4.7L73.4,4.7z M79.2,13.7c0.4-0.4,0.6-0.9,0.6-1.6s-0.2-1.1-0.6-1.6
	s-0.9-0.6-1.5-0.6c-0.5,0-0.9,0.1-1.2,0.4s-0.6,0.6-0.8,0.9V13c0.2,0.4,0.4,0.7,0.8,0.9s0.8,0.4,1.2,0.4
	C78.3,14.3,78.8,14.1,79.2,13.7L79.2,13.7z"/>
<path class="st0" d="M83.5,12.1c0-0.7,0.1-1.3,0.4-1.9s0.6-1,1-1.3c0.4-0.3,0.8-0.6,1.3-0.7S87.1,8,87.5,8c0.8,0,1.4,0.1,2,0.4
	c0.6,0.3,1,0.7,1.2,1.1c0.3,0.5,0.5,1,0.6,1.6c0.1,0.6,0.1,1.1-0.1,1.7h-5.5c0.1,0.5,0.4,0.9,0.9,1.2s1.1,0.4,1.8,0.4
	c0.8,0,1.6-0.2,2.3-0.5v1.8c-0.8,0.3-1.7,0.5-2.8,0.5c-1.3,0-2.4-0.4-3.2-1.1C83.9,14.4,83.5,13.4,83.5,12.1L83.5,12.1z M89.2,11.4
	c0.1-0.4-0.1-0.7-0.3-1.1c-0.3-0.4-0.7-0.6-1.3-0.6c-0.5,0-0.9,0.1-1.3,0.4s-0.5,0.7-0.6,1.2H89.2L89.2,11.4z"/>
<polygon class="st0" points="93.3,4.2 95.6,4.2 95.6,16 93.3,16 "/>
<path class="st0" d="M55,18.5h5c1.2,0,2.2,0.2,2.9,0.7s1,1.2,1,2.1c0,1.3-0.6,2.1-1.7,2.5c0.6,0.2,1.1,0.5,1.5,1
	c0.4,0.5,0.6,1.1,0.6,1.9c0,0.6-0.1,1.1-0.4,1.6c-0.3,0.4-0.6,0.8-1.1,1c-0.5,0.2-0.9,0.4-1.4,0.5c-0.5,0.1-1,0.1-1.5,0.1H55V18.5
	L55,18.5z M61.9,26.3c0-1-0.6-1.5-1.9-1.5h-2.5v2.9h2.4c0.6,0,1.1-0.1,1.5-0.3C61.7,27.3,61.9,26.9,61.9,26.3L61.9,26.3z M61.5,21.7
	c0-0.9-0.6-1.3-1.7-1.3h-2.3V23h2.4c0.5,0,0.9-0.1,1.2-0.3C61.3,22.5,61.5,22.1,61.5,21.7L61.5,21.7z"/>
<path class="st0" d="M68.2,23.2c0.3-0.5,0.7-0.8,1.3-1s1.2-0.3,1.9-0.3V24c-0.6-0.1-1.2,0-1.7,0.2s-0.9,0.5-1.2,1v4.6h-2.2V22h2
	L68.2,23.2L68.2,23.2z"/>
<path class="st0" d="M79.9,27.8c0,0.3,0.2,0.5,0.6,0.5c0.2,0,0.3,0,0.4-0.1v1.5c-0.4,0.1-0.8,0.2-1.2,0.2c-0.8,0-1.4-0.3-1.7-0.9
	c-0.8,0.6-1.7,1-2.8,1c-0.8,0-1.4-0.2-1.9-0.6s-0.8-1-0.8-1.7c0-0.6,0.2-1.1,0.6-1.5c0.4-0.4,0.8-0.7,1.3-0.8c0.5-0.1,1-0.2,1.6-0.2
	c0.6,0,1.2,0.1,1.8,0.2V25c0-0.4-0.2-0.7-0.5-1c-0.3-0.2-0.8-0.4-1.4-0.4c-0.9,0-1.8,0.2-2.8,0.6v-1.9c1-0.4,2-0.5,3-0.5
	c2.5,0,3.8,1.2,3.8,3.5V27.8L79.9,27.8z M76.3,26.4c-0.5,0-0.8,0.1-1.2,0.3c-0.3,0.2-0.5,0.4-0.5,0.8c0,0.3,0.1,0.5,0.3,0.7
	c0.2,0.2,0.5,0.3,0.9,0.3c0.7,0,1.3-0.2,1.8-0.6v-1.2C77.1,26.4,76.7,26.4,76.3,26.4L76.3,26.4z"/>
<path class="st0" d="M84.4,23c0.7-0.8,1.6-1.2,2.6-1.2c1,0,1.8,0.3,2.3,0.9c0.6,0.6,0.8,1.4,0.8,2.3v4.8h-2.2v-4.5
	c0-0.5-0.1-0.9-0.4-1.1c-0.3-0.3-0.6-0.4-1.1-0.4c-0.7,0-1.3,0.3-1.7,1v5.1h-2.2V22h2L84.4,23L84.4,23z"/>
<path class="st0" d="M98.3,18.5h2.2v11.3h-2v-1.1C97.9,29.5,97,30,95.8,30c-1.2,0-2.1-0.4-2.8-1.2c-0.7-0.8-1-1.8-1-2.9
	s0.3-2.1,1-2.9s1.6-1.2,2.8-1.2c1.1,0,1.9,0.4,2.6,1L98.3,18.5L98.3,18.5z M98.3,25c-0.2-0.4-0.4-0.7-0.8-0.9s-0.8-0.4-1.2-0.4
	c-0.6,0-1.1,0.2-1.5,0.6c-0.4,0.4-0.6,1-0.6,1.6c0,0.6,0.2,1.1,0.6,1.6s0.9,0.6,1.5,0.6c0.5,0,0.9-0.1,1.2-0.4s0.6-0.6,0.8-0.9V25
	L98.3,25z"/>
<path class="st1" d="M24.6,19l-12.3,5.3l1.3,3l12-5.2C25.4,21,25,20,24.6,19L24.6,19z"/>
<path class="st2" d="M21.1,15l-9.4,9.1l2.2,2.3l9.3-9.1C22.7,16.5,22,15.7,21.1,15L21.1,15z"/>
<path class="st3" d="M40.6,18.5c-0.9,0-1.6,0.7-1.6,1.6c0,3.1,0,9.7,0,9.7h3.4c0,0,0-6.6,0-9.7c0-0.9-0.7-1.6-1.6-1.6
	C40.7,18.5,40.7,18.5,40.6,18.5L40.6,18.5z"/>
<path class="st3" d="M6.3,18.5c-0.9,0-1.6,0.7-1.6,1.6c0,3.1,0,9.7,0,9.7h3.4c0,0,0-6.6,0-9.7c0-0.9-0.7-1.6-1.6-1.6
	C6.4,18.5,6.3,18.5,6.3,18.5L6.3,18.5z"/>
<path class="st4" d="M15.9,12.7l-4.8,12.2l3,1.2l4.8-12.3C18,13.2,17,12.9,15.9,12.7L15.9,12.7z"/>
<path class="st3" d="M34.1,24.2h-21V11.9h-0.6c-1,0-1.9,0.2-2.8,0.4v15.2h27.8c0,0,0-14.1,0-21.2c0-0.8-0.4-1.6-1.1-2
	s-1.6-0.5-2.3-0.2c-4.2,1.9-10.6,4.9-10.6,4.9s-6.6-3.1-10.6-5c-0.7-0.3-1.4-0.3-2.1,0.1c-0.6,0.4-1,1.1-1,1.8l0,0l13.6,6.5
	l10.8-4.9L34.1,24.2L34.1,24.2z"/>
</svg>
