<?xml version="1.0" encoding="utf-8"?>
<!-- Generator: Adobe Illustrator 27.2.0, SVG Export Plug-In . SVG Version: 6.00 Build 0)  -->
<svg version="1.1" id="Layer_1" xmlns="http://www.w3.org/2000/svg" xmlns:xlink="http://www.w3.org/1999/xlink" x="0px" y="0px"
	 viewBox="0 0 104.64 34.11" style="enable-background:new 0 0 104.64 34.11;" xml:space="preserve">
<style type="text/css">
	.st0{fill:#FFFFFF;}
	.st1{fill-rule:evenodd;clip-rule:evenodd;fill:#577E79;}
	.st2{fill-rule:evenodd;clip-rule:evenodd;fill:#D54B45;}
	.st3{fill-rule:evenodd;clip-rule:evenodd;fill:#FFFFFF;}
	.st4{fill-rule:evenodd;clip-rule:evenodd;fill:#F2AB60;}
</style>
<polygon class="st0" points="59.41,4.66 61.66,4.66 61.66,15.97 59.23,15.97 59.23,9.01 56.24,13.55 54.84,13.55 51.85,8.99 
	51.85,15.97 49.42,15.97 49.42,4.66 51.67,4.66 55.55,10.54 59.41,4.66 "/>
<path class="st0" d="M63.67,12.1c0-0.7,0.12-1.32,0.37-1.87c0.25-0.55,0.57-0.97,0.98-1.29c0.4-0.31,0.83-0.55,1.28-0.71
	c0.45-0.16,0.9-0.24,1.37-0.24c0.78,0,1.45,0.15,2.01,0.44c0.57,0.29,0.98,0.67,1.25,1.12c0.27,0.46,0.46,0.98,0.56,1.55
	c0.1,0.58,0.07,1.15-0.09,1.72h-5.46c0.12,0.54,0.43,0.94,0.94,1.2c0.51,0.26,1.1,0.4,1.79,0.4c0.85,0,1.63-0.16,2.34-0.47v1.76
	c-0.76,0.32-1.71,0.48-2.84,0.48c-1.29,0-2.37-0.36-3.22-1.08C64.1,14.4,63.67,13.39,63.67,12.1L63.67,12.1z M69.38,11.37
	c0.05-0.36-0.05-0.72-0.31-1.1c-0.26-0.38-0.7-0.57-1.32-0.57c-0.5,0-0.92,0.15-1.28,0.45c-0.36,0.3-0.54,0.7-0.55,1.22H69.38
	L69.38,11.37z"/>
<path class="st0" d="M73.43,4.66h2.25v4.38c0.61-0.7,1.46-1.05,2.55-1.05c1.17,0,2.1,0.4,2.77,1.2c0.67,0.8,1.01,1.77,1.01,2.9
	c0,1.13-0.34,2.1-1.01,2.9c-0.67,0.8-1.6,1.2-2.77,1.2c-1.24,0-2.18-0.45-2.81-1.36v1.13h-1.99V4.66L73.43,4.66z M79.17,13.67
	c0.37-0.43,0.55-0.95,0.55-1.58c0-0.63-0.18-1.15-0.55-1.58c-0.37-0.43-0.86-0.64-1.49-0.64c-0.46,0-0.88,0.12-1.24,0.37
	c-0.36,0.25-0.62,0.56-0.78,0.92v1.84c0.16,0.37,0.42,0.67,0.78,0.92c0.36,0.25,0.77,0.37,1.24,0.37
	C78.31,14.31,78.8,14.1,79.17,13.67L79.17,13.67z"/>
<path class="st0" d="M83.53,12.1c0-0.7,0.12-1.32,0.37-1.87c0.25-0.55,0.57-0.97,0.98-1.29c0.4-0.31,0.83-0.55,1.28-0.71
	c0.45-0.16,0.9-0.24,1.37-0.24c0.77,0,1.45,0.15,2.01,0.44c0.57,0.29,0.98,0.67,1.25,1.12c0.27,0.46,0.46,0.98,0.56,1.55
	c0.1,0.58,0.07,1.15-0.09,1.72h-5.46c0.12,0.54,0.43,0.94,0.94,1.2c0.51,0.26,1.1,0.4,1.79,0.4c0.85,0,1.63-0.16,2.34-0.47v1.76
	c-0.77,0.32-1.71,0.48-2.84,0.48c-1.29,0-2.37-0.36-3.22-1.08C83.95,14.4,83.53,13.39,83.53,12.1L83.53,12.1z M89.23,11.37
	c0.05-0.36-0.05-0.72-0.31-1.1c-0.26-0.38-0.7-0.57-1.32-0.57c-0.5,0-0.92,0.15-1.28,0.45c-0.36,0.3-0.54,0.7-0.55,1.22H89.23
	L89.23,11.37z"/>
<polygon class="st0" points="93.32,4.18 95.56,4.18 95.56,15.97 93.32,15.97 93.32,4.18 "/>
<path class="st0" d="M55.01,18.45h4.95c1.24,0,2.2,0.24,2.88,0.72c0.68,0.48,1.03,1.19,1.03,2.14c0,1.26-0.57,2.08-1.71,2.47
	c0.62,0.18,1.14,0.5,1.55,0.96c0.41,0.46,0.61,1.07,0.61,1.85c0,0.61-0.13,1.14-0.4,1.58c-0.27,0.44-0.63,0.76-1.09,0.98
	c-0.46,0.21-0.93,0.37-1.41,0.47c-0.48,0.1-0.99,0.15-1.54,0.15h-4.87V18.45L55.01,18.45z M61.89,26.34c0-0.97-0.64-1.45-1.92-1.45
	h-2.55v2.91h2.42c0.64,0,1.14-0.1,1.5-0.31C61.71,27.28,61.89,26.9,61.89,26.34L61.89,26.34z M61.45,21.73
	c0-0.86-0.57-1.29-1.71-1.29h-2.31v2.59h2.44c0.47,0,0.86-0.11,1.15-0.33C61.31,22.47,61.45,22.15,61.45,21.73L61.45,21.73z"/>
<path class="st0" d="M68.22,23.17c0.29-0.45,0.71-0.8,1.26-1.05c0.55-0.25,1.18-0.34,1.88-0.27v2.18c-0.61-0.11-1.19-0.05-1.72,0.16
	c-0.53,0.21-0.92,0.55-1.16,1.02v4.56h-2.25v-7.76h1.99V23.17L68.22,23.17z"/>
<path class="st0" d="M79.87,27.76c0,0.34,0.18,0.52,0.55,0.52c0.15,0,0.29-0.02,0.42-0.07v1.47c-0.41,0.15-0.82,0.23-1.24,0.23
	c-0.82,0-1.39-0.29-1.71-0.87c-0.81,0.64-1.74,0.95-2.8,0.95c-0.77,0-1.41-0.21-1.93-0.64c-0.52-0.43-0.78-1.01-0.78-1.74
	c0-0.61,0.18-1.13,0.55-1.53c0.37-0.41,0.79-0.69,1.28-0.83c0.49-0.15,1.01-0.22,1.58-0.22c0.64,0,1.25,0.07,1.84,0.21v-0.27
	c0-0.4-0.16-0.72-0.47-0.95c-0.31-0.24-0.77-0.35-1.36-0.35c-0.86,0-1.78,0.19-2.75,0.58V22.3c1.04-0.35,2.04-0.52,3.01-0.52
	c2.54,0,3.81,1.17,3.81,3.51V27.76L79.87,27.76z M76.3,26.37c-0.46,0-0.85,0.09-1.16,0.26c-0.31,0.17-0.47,0.44-0.47,0.81
	c0,0.28,0.12,0.51,0.35,0.69c0.23,0.18,0.52,0.27,0.86,0.27c0.68,0,1.26-0.21,1.75-0.63v-1.21C77.13,26.43,76.69,26.37,76.3,26.37
	L76.3,26.37z"/>
<path class="st0" d="M84.37,22.99c0.7-0.81,1.56-1.21,2.59-1.21c0.99,0,1.77,0.3,2.32,0.9c0.56,0.6,0.83,1.36,0.83,2.29v4.8h-2.25
	v-4.51c0-0.51-0.14-0.89-0.41-1.15c-0.27-0.26-0.64-0.39-1.09-0.39c-0.7,0-1.28,0.33-1.73,0.99v5.06h-2.25v-7.76h1.99V22.99
	L84.37,22.99z"/>
<path class="st0" d="M98.32,18.45h2.23v11.31h-1.97v-1.13c-0.66,0.9-1.6,1.36-2.81,1.36c-1.18,0-2.1-0.4-2.78-1.2
	c-0.68-0.8-1.02-1.77-1.02-2.9c0-1.13,0.34-2.1,1.02-2.9c0.68-0.8,1.6-1.2,2.78-1.2c1.07,0,1.92,0.35,2.55,1.05V18.45L98.32,18.45z
	 M98.32,24.96c-0.16-0.37-0.42-0.67-0.78-0.92c-0.36-0.25-0.77-0.37-1.24-0.37c-0.62,0-1.12,0.21-1.49,0.64
	c-0.37,0.43-0.55,0.95-0.55,1.58c0,0.62,0.18,1.15,0.55,1.58c0.37,0.43,0.86,0.64,1.49,0.64c0.46,0,0.88-0.12,1.24-0.37
	c0.36-0.25,0.62-0.56,0.78-0.92V24.96L98.32,24.96z"/>
<path class="st1" d="M24.59,19.02l-12.3,5.34l1.28,2.95l11.99-5.2C25.37,21.02,25.04,19.99,24.59,19.02L24.59,19.02z"/>
<path class="st2" d="M21.11,15.02l-9.38,9.12l2.24,2.31l9.35-9.09C22.69,16.49,21.95,15.7,21.11,15.02L21.11,15.02z"/>
<path class="st3" d="M40.58,18.45c-0.88,0-1.59,0.71-1.59,1.58c0,3.11,0,9.69,0,9.69h3.4c0,0,0-6.58,0-9.69
	c0-0.88-0.71-1.58-1.59-1.58C40.74,18.45,40.66,18.45,40.58,18.45L40.58,18.45z"/>
<path class="st3" d="M6.26,18.45c-0.87,0-1.58,0.71-1.58,1.58c0,3.11,0,9.69,0,9.69h3.4c0,0,0-6.58,0-9.69
	c0-0.88-0.71-1.58-1.58-1.58C6.42,18.45,6.34,18.45,6.26,18.45L6.26,18.45z"/>
<path class="st4" d="M15.88,12.67l-4.77,12.2l3,1.17l4.82-12.33C17.98,13.24,16.96,12.89,15.88,12.67L15.88,12.67z"/>
<path class="st3" d="M34.12,24.23H13.14V11.95h-0.56c-0.98,0.04-1.93,0.2-2.84,0.45v15.23h27.78c0,0,0-14.07,0-21.16
	c0-0.83-0.42-1.59-1.12-2.04c-0.7-0.45-1.57-0.51-2.32-0.16c-4.17,1.92-10.65,4.9-10.65,4.9s-6.58-3.11-10.62-5.02
	c-0.67-0.32-1.45-0.27-2.07,0.13c-0.62,0.39-1,1.08-1,1.82c0,0,0,0,0,0l13.61,6.48l10.77-4.93V24.23L34.12,24.23z"/>
</svg>
