<?xml version="1.0" encoding="utf-8"?>
<!-- Generator: Adobe Illustrator 27.2.0, SVG Export Plug-In . SVG Version: 6.00 Build 0)  -->
<svg version="1.1" id="Layer_1" xmlns="http://www.w3.org/2000/svg" xmlns:xlink="http://www.w3.org/1999/xlink" x="0px" y="0px"
	 viewBox="0 0 41.9 10.1" style="enable-background:new 0 0 41.9 10.1;" xml:space="preserve">
<style type="text/css">
	.st0{fill:#9088A0;}
</style>
<path class="st0" d="M5.4,8.1C5.3,8.1,5.1,8.1,5,8L2,6L1.9,5.9C1.8,5.8,1.8,5.8,1.7,5.7c0,0,0-0.1-0.1-0.1c0-0.1,0-0.1,0-0.2
	s0-0.1,0-0.2c0,0,0-0.1,0.1-0.1C1.7,5,1.8,5,1.8,4.9l0.1-0.1l3-2C5.3,2.5,5.8,2.6,6,3c0.2,0.3,0.1,0.8-0.2,1L4.9,4.6h29.5
	c0.4,0,0.8,0.3,0.8,0.8s-0.3,0.8-0.8,0.8H4.9l0.9,0.6C6.2,7,6.3,7.4,6,7.8C5.9,8,5.6,8.1,5.4,8.1z"/>
</svg>
