<?xml version="1.0" encoding="utf-8"?>
<!-- Generator: Adobe Illustrator 27.2.0, SVG Export Plug-In . SVG Version: 6.00 Build 0)  -->
<svg version="1.1" id="Layer_1" xmlns="http://www.w3.org/2000/svg" xmlns:xlink="http://www.w3.org/1999/xlink" x="0px" y="0px"
	 viewBox="0 0 41.9 10.1" style="enable-background:new 0 0 41.9 10.1;" xml:space="preserve">
<style type="text/css">
	.st0{fill:#222125;}
</style>
<path class="st0" d="M36.4,8.1c0.1,0,0.3,0,0.4-0.1l3-2c0,0,0.1-0.1,0.1-0.1C40,5.8,40,5.8,40.1,5.7c0,0,0-0.1,0.1-0.1
	c0-0.1,0-0.1,0-0.2s0-0.1,0-0.2c0,0,0-0.1-0.1-0.1C40,5,40,4.9,39.9,4.8c0,0-0.1-0.1-0.1-0.1l-3-2c-0.3-0.2-0.8-0.1-1,0.2
	c-0.2,0.3-0.1,0.8,0.2,1l0.9,0.6H7.4C7,4.6,6.7,5,6.7,5.4S7,6.1,7.4,6.1h29.5L36,6.7c-0.3,0.2-0.4,0.7-0.2,1
	C35.9,8,36.2,8.1,36.4,8.1z"/>
</svg>
