<?xml version="1.0" encoding="utf-8"?>
<!-- Generator: Adobe Illustrator 27.2.0, SVG Export Plug-In . SVG Version: 6.00 Build 0)  -->
<svg version="1.1" id="Layer_1" xmlns="http://www.w3.org/2000/svg" xmlns:xlink="http://www.w3.org/1999/xlink" x="0px" y="0px"
	 viewBox="0 0 24 24" style="enable-background:new 0 0 24 24;" xml:space="preserve">
<style type="text/css">
	.st0{fill:#DC143C;}
	.st1{fill:#FFFFFF;}
</style>
<circle class="st0" cx="12" cy="12" r="12"/>
<path class="st1" d="M18.7,18.9H5.6c-0.5,0-1-0.2-1.4-0.6c-0.4-0.4-0.6-0.9-0.6-1.4v-8c0-0.5,0.2-1,0.6-1.4C4.5,7.2,5.1,7,5.6,7h2.7
	l1.3-2c0.1-0.1,0.2-0.2,0.4-0.2h4.4c0.1,0,0.3,0.1,0.4,0.2L16,7h2.7c0.5,0,1,0.2,1.4,0.6s0.6,0.9,0.6,1.4v8c0,0.5-0.2,1-0.6,1.4
	C19.7,18.7,19.2,18.9,18.7,18.9z M5.6,7.9c-0.3,0-0.5,0.1-0.7,0.3C4.6,8.4,4.5,8.7,4.5,8.9v8c0,0.3,0.1,0.5,0.3,0.7
	C5.1,17.9,5.3,18,5.6,18h13.1c0.3,0,0.5-0.1,0.7-0.3c0.2-0.2,0.3-0.4,0.3-0.7v-8c0-0.3-0.1-0.5-0.3-0.7C19.2,8,19,7.9,18.7,7.9h-2.9
	c-0.1,0-0.3-0.1-0.4-0.2l-1.3-2h-3.9l-1.3,2C8.8,7.9,8.6,7.9,8.5,7.9H5.6z"/>
<path class="st1" d="M12.1,16c-1.9,0-3.3-1.5-3.3-3.4s1.5-3.3,3.3-3.3c1.9,0,3.4,1.5,3.4,3.3C15.5,14.5,14,16,12.1,16z M12.1,10.1
	c-1.3,0-2.5,1.1-2.5,2.5c0,1.3,1.1,2.4,2.5,2.4c1.3,0,2.4-1.1,2.4-2.4S13.4,10.1,12.1,10.1z"/>
</svg>
