<?xml version="1.0" encoding="utf-8"?>
<!-- Generator: Adobe Illustrator 27.2.0, SVG Export Plug-In . SVG Version: 6.00 Build 0)  -->
<svg version="1.1" id="Layer_1" xmlns="http://www.w3.org/2000/svg" xmlns:xlink="http://www.w3.org/1999/xlink" x="0px" y="0px"
	 viewBox="0 0 32 32" style="enable-background:new 0 0 32 32;" xml:space="preserve">
<style type="text/css">
	.st0{fill:none;stroke:#FFFFFF;stroke-width:1.5;stroke-linecap:round;stroke-linejoin:round;stroke-miterlimit:10;}
</style>
<polygon class="st0" points="16.2,28.6 16.2,21.7 30,14.8 29.9,21.5 "/>
<polygon class="st0" points="6,18.3 16.2,21.7 16.2,28.6 6,25.1 "/>
<polygon class="st0" points="30,14.8 16.2,21.7 6,18.3 19.7,11.4 "/>
<polygon class="st0" points="19.7,4.5 19.7,11.4 6,18.3 6,11.4 "/>
<path class="st0" d="M6,25.1"/>
<polygon class="st0" points="2.6,17.2 16.2,21.7 16.2,28.6 2.6,23.9 "/>
<polyline class="st0" points="9.3,6.9 12.8,8 12.8,14.8 "/>
<polyline class="st0" points="16.2,3.4 2.6,10.3 2.6,23.9 "/>
<line class="st0" x1="16.2" y1="3.4" x2="19.7" y2="4.5"/>
<line class="st0" x1="2.6" y1="10.3" x2="6" y2="11.4"/>
</svg>
