<?xml version="1.0" encoding="utf-8"?>
<!-- Generator: Adobe Illustrator 28.1.0, SVG Export Plug-In . SVG Version: 6.00 Build 0)  -->
<svg version="1.1" id="Layer_1" xmlns="http://www.w3.org/2000/svg" xmlns:xlink="http://www.w3.org/1999/xlink" x="0px" y="0px"
	 viewBox="0 0 24 24" style="enable-background:new 0 0 24 24;" xml:space="preserve">
<style type="text/css">
	.st0{fill:none;stroke:#222125;stroke-width:1.1;stroke-miterlimit:10;}
	.st1{fill:none;stroke:#222125;stroke-width:1.1;stroke-linecap:round;stroke-linejoin:round;stroke-miterlimit:10;}
	.st2{fill:none;stroke:#222125;stroke-width:1.1;stroke-linecap:round;stroke-miterlimit:10;}
</style>
<g>
	<path class="st0" d="M18.6,10.3v1.8c0,0.4-0.3,0.9-0.9,0.9H6.2c-0.4,0-0.9-0.4-0.9-0.9v-1.8c0-0.4-0.3-0.9-0.9-0.9H1.7
		c-0.4,0-0.9,0.4-0.9,0.9v7.2c0,0.4,0.3,0.9,0.9,0.9h3.7h13.2h3.7c0.4,0,0.9-0.4,0.9-0.9v-7.2c0-0.4-0.3-0.9-0.9-0.9h-2.9
		C19,9.5,18.6,9.9,18.6,10.3z"/>
	<line class="st1" x1="20.7" y1="18.9" x2="20.7" y2="21.4"/>
	<path class="st0" d="M3.2,9.5v-4c0-0.4,0.3-0.9,0.9-0.9h15.8c0.4,0,0.9,0.4,0.9,0.9v4.2"/>
	<line class="st2" x1="3.2" y1="21.4" x2="3.2" y2="18.9"/>
</g>
<line class="st0" x1="8.7" y1="4.6" x2="8.7" y2="12.8"/>
<line class="st0" x1="15.4" y1="4.6" x2="15.4" y2="12.8"/>
</svg>
