<?xml version="1.0" encoding="utf-8"?>
<!-- Generator: Adobe Illustrator 28.1.0, SVG Export Plug-In . SVG Version: 6.00 Build 0)  -->
<svg version="1.1" id="Layer_1" xmlns="http://www.w3.org/2000/svg" xmlns:xlink="http://www.w3.org/1999/xlink" x="0px" y="0px"
	 viewBox="0 0 24 24" style="enable-background:new 0 0 24 24;" xml:space="preserve">
<style type="text/css">
	.st0{fill:none;stroke:#FFFFFF;stroke-width:1.1;stroke-linecap:round;stroke-linejoin:round;}
</style>
<path class="st0" d="M16.9,4.6l-6.5-2.3C9.9,2.2,9.5,2.2,9.1,2.4C8.6,2.6,8.3,3,8.2,3.4l-4.6,13c-0.2,0.4-0.1,0.9,0.1,1.3
	c0.2,0.4,0.5,0.7,1,0.9l9.7,3.5c0.4,0.2,0.9,0.1,1.3-0.1c0.4-0.2,0.7-0.5,0.9-1l3.5-9.7L16.9,4.6z"/>
<path class="st0" d="M16.9,4.6l-1.7,4.9l4.9,1.7"/>
<path class="st0" d="M15.3,14.1l-6.5-2.3"/>
<path class="st0" d="M14.2,17.4l-6.5-2.3"/>
<path class="st0" d="M11.6,9.2l-0.8-0.3L10,8.6"/>
</svg>
