<svg width="43" height="42" viewBox="0 0 43 42" fill="none" xmlns="http://www.w3.org/2000/svg">
<path d="M1.84388 11.9551C1.94114 9.82986 2.27391 8.45919 2.72393 7.29571L2.72999 7.27964C3.17594 6.0957 3.87454 5.02316 4.77717 4.13667L4.78984 4.12423L4.80228 4.11157C5.6895 3.20778 6.76242 2.50986 7.94532 2.06509L7.96573 2.05728C9.12655 1.60585 10.4945 1.27432 12.6216 1.17708M1.84388 11.9551C1.74163 14.2258 1.71558 14.9297 1.71558 20.8172C1.71558 26.7061 1.7402 27.4083 1.84383 29.6796M1.84388 11.9551L1.84388 12.5279M2.73183 34.3558C3.17661 35.5387 3.87453 36.6117 4.77831 37.4989L4.79096 37.5113L4.80338 37.5239C5.68992 38.4266 6.76248 39.1252 7.94644 39.5712L7.96412 39.5779C9.12599 40.0285 10.4947 40.3601 12.6216 40.4573M2.73183 34.3558L2.72403 34.3354C2.2726 33.1746 1.94107 31.8066 1.84383 29.6796M2.73183 34.3558L2.70517 34.2154M1.84383 29.6796L1.87865 29.863M1.84383 29.6796L1.84383 29.1054M2.70517 34.2154L1.87865 29.863M2.70517 34.2154C2.35414 33.288 1.99267 31.9941 1.87865 29.863M2.70517 34.2154C2.71748 34.2479 2.72978 34.28 2.74206 34.3117C3.18723 35.5118 3.89259 36.5984 4.80743 37.4936C5.70224 38.4082 6.78848 39.1135 7.98819 39.5586C8.95097 39.9337 10.3076 40.3256 12.6212 40.4316C14.9561 40.5379 15.6774 40.5595 21.484 40.5595C27.2905 40.5595 28.0124 40.5378 30.3473 40.4316C32.6638 40.3254 34.0188 39.9313 34.9782 39.5592C36.1786 39.1142 37.2654 38.4088 38.1605 37.4935C39.0751 36.5988 39.7803 35.5126 40.2254 34.3129C40.6004 33.3502 40.9923 31.9935 41.0983 29.6799C41.2046 27.3451 41.2263 26.6223 41.2263 20.8172C41.2263 15.0122 41.2046 14.2887 41.0983 11.9539C40.9916 9.62528 40.5939 8.26823 40.2201 7.30799C39.7314 6.04636 39.1116 5.09217 38.159 4.13955C37.2083 3.1907 36.2566 2.5706 34.9941 2.0814C34.0304 1.70464 32.6725 1.3094 30.3473 1.20285C30.1451 1.19364 29.955 1.18508 29.7726 1.1771M1.87865 29.863C1.87543 29.8028 1.87241 29.742 1.86959 29.6805C1.86038 29.4782 1.85181 29.2879 1.84383 29.1054M12.6216 1.17708C14.8928 1.07345 15.5965 1.04883 21.484 1.04883C27.3714 1.04883 28.0747 1.07486 30.3454 1.1771M12.6216 1.17708L13.1958 1.17708M30.3454 1.1771L29.7726 1.1771M30.3454 1.1771C32.471 1.27432 33.8419 1.60704 35.0055 2.05711L35.0215 2.06324C36.2055 2.50919 37.278 3.2078 38.1645 4.11043L38.1768 4.12296L38.1893 4.13528C39.0921 5.02185 39.7906 6.09467 40.2362 7.27895L40.2439 7.29898C40.6953 8.4598 41.0268 9.8278 41.1241 11.9548M13.1958 1.17708L29.7726 1.1771M13.1958 1.17708C15.1191 1.09298 16.1821 1.07488 21.484 1.07488C26.7863 1.07488 27.849 1.09299 29.7726 1.1771M13.1958 1.17708C13.0133 1.18506 12.823 1.19364 12.6206 1.20285C10.3041 1.30901 8.94907 1.70312 7.9897 2.07523C6.7848 2.52188 5.69433 3.23099 4.79732 4.15118C3.85358 5.0988 3.23586 6.04842 2.74821 7.3069C2.37143 8.27056 1.97613 9.62918 1.86957 11.9545C1.86039 12.1562 1.85184 12.3459 1.84388 12.5279M41.1241 29.6796C41.0268 31.8065 40.6953 33.1752 40.2447 34.3371L40.2379 34.3548C39.792 35.5387 39.0934 36.6113 38.1907 37.4977L38.1781 37.5102L38.1656 37.5228C37.2784 38.4266 36.2055 39.1245 35.0226 39.5693L35.0022 39.5771C33.8414 40.0286 32.4734 40.3601 30.3463 40.4573M1.84383 29.1054C1.75973 27.1821 1.74163 26.1191 1.74163 20.8172C1.74163 15.5137 1.75972 14.4522 1.84388 12.5279M1.84383 29.1054L1.84388 12.5279M17.968 29.3055C19.0827 29.7672 20.2774 30.0048 21.484 30.0048C23.9207 30.0048 26.2576 29.0368 27.9806 27.3138C29.7036 25.5908 30.6716 23.2539 30.6716 20.8172C30.6716 18.3805 29.7036 16.0436 27.9806 14.3206C26.2576 12.5976 23.9207 11.6296 21.484 11.6296C20.2774 11.6296 19.0827 11.8672 17.968 12.329C16.8533 12.7907 15.8405 13.4674 14.9873 14.3206C14.1342 15.1737 13.4574 16.1866 12.9957 17.3013C12.534 18.4159 12.2964 19.6107 12.2964 20.8172C12.2964 22.0237 12.534 23.2185 12.9957 24.3332C13.4574 25.4478 14.1342 26.4607 14.9873 27.3138C15.8405 28.167 16.8533 28.8437 17.968 29.3055ZM14.9669 14.3001C16.6953 12.5717 19.0396 11.6006 21.484 11.6006C23.9283 11.6006 26.2726 12.5717 28.0011 14.3001C29.7295 16.0286 30.7005 18.3728 30.7005 20.8172C30.7005 23.2616 29.7295 25.6059 28.0011 27.3343C26.2726 29.0627 23.9283 30.0338 21.484 30.0338C19.0396 30.0338 16.6953 29.0627 14.9669 27.3343C13.2384 25.6059 12.2674 23.2616 12.2674 20.8172C12.2674 18.3728 13.2384 16.0286 14.9669 14.3001ZM35.8903 9.45482C35.8903 10.1544 35.6124 10.8254 35.1177 11.3201C34.623 11.8148 33.952 12.0928 33.2524 12.0928C32.5527 12.0928 31.8818 11.8148 31.387 11.3201C30.8923 10.8254 30.6144 10.1544 30.6144 9.45482C30.6144 8.75519 30.8923 8.08422 31.387 7.58951C31.8818 7.09479 32.5527 6.81687 33.2524 6.81687C33.952 6.81687 34.623 7.09479 35.1177 7.58951C35.6124 8.08422 35.8903 8.75519 35.8903 9.45482Z" stroke="black" stroke-width="1.55963" stroke-linejoin="round"/>
</svg>
