<?xml version="1.0" encoding="utf-8"?>
<!-- Generator: Adobe Illustrator 28.1.0, SVG Export Plug-In . SVG Version: 6.00 Build 0)  -->
<svg version="1.1" id="Layer_1" xmlns="http://www.w3.org/2000/svg" xmlns:xlink="http://www.w3.org/1999/xlink" x="0px" y="0px"
	 viewBox="0 0 24 24" style="enable-background:new 0 0 24 24;" xml:space="preserve">
<style type="text/css">
	.st0{fill:none;stroke:#222125;stroke-width:1.1;stroke-miterlimit:10;}
	.st1{fill:none;stroke:#222125;stroke-width:1.1;stroke-linecap:round;stroke-linejoin:round;stroke-miterlimit:10;}
</style>
<path class="st0" d="M22,19H2c-0.6,0-1.2-0.5-1.2-1.2V7.4C0.9,6,2,5,3.3,5h17.4c1.3,0,2.4,1,2.4,2.4v10.4C23.1,18.5,22.6,19,22,19z"
	/>
<line class="st0" x1="1" y1="13.2" x2="23" y2="13.2"/>
<line class="st1" x1="2.1" y1="19.4" x2="2.1" y2="21.3"/>
<line class="st1" x1="22" y1="19.4" x2="22" y2="21.3"/>
<path class="st1" d="M13.5,13.2V11c0-0.8,0.6-1.4,1.3-1.4h3.5c0.7,0,1.3,0.6,1.3,1.4v2.2"/>
<path class="st1" d="M4.3,13.2V11c0-0.8,0.6-1.4,1.3-1.4h3.5c0.7,0,1.3,0.6,1.3,1.4v2.2"/>
</svg>
