<svg width="29" height="29" viewBox="0 0 29 29" fill="none" xmlns="http://www.w3.org/2000/svg">
<path d="M3.58579 16.0858L5 17.5M6 13.5L9.5 17M8.48527 11L9.89948 12.4142M11 8.48528L12.4142 9.89949M16 3.5L17.4142 4.91421M13.5 6L17 9.5M19.799 1.41421L26.87 8.48528C27.6511 9.26633 27.6511 10.5327 26.87 11.3137L11.3137 26.8701C10.5326 27.6511 9.26632 27.6511 8.48527 26.8701L1.4142 19.799C0.633155 19.0179 0.633155 17.7516 1.4142 16.9706L16.9706 1.41421C17.7516 0.633165 19.0179 0.633165 19.799 1.41421Z" stroke="#2E4454" stroke-width="1.5" stroke-linecap="round" stroke-linejoin="round"/>
</svg>
