<?xml version="1.0" encoding="utf-8"?>
<!-- Generator: Adobe Illustrator 27.2.0, SVG Export Plug-In . SVG Version: 6.00 Build 0)  -->
<svg version="1.1" id="Layer_1" xmlns="http://www.w3.org/2000/svg" xmlns:xlink="http://www.w3.org/1999/xlink" x="0px" y="0px"
	 viewBox="0 0 32 32" style="enable-background:new 0 0 32 32;" xml:space="preserve">
<style type="text/css">
	.st0{fill:#222125;}
</style>
<path class="st0" d="M17.6,29.8h-3.3c-0.5,0-1-0.3-1.2-0.9l-0.9-2.8c-0.3-0.1-0.7-0.3-1-0.4L8.9,27c-0.5,0.3-1.1,0.2-1.5-0.2
	l-2.3-2.3c-0.4-0.4-0.5-1-0.2-1.5l1.4-2.3c-0.2-0.4-0.4-0.8-0.5-1.3l-2.6-0.7c-0.6-0.1-0.9-0.6-0.9-1.2v-3.2c0-0.6,0.4-1.1,0.9-1.2
	l2.6-0.7c0.1-0.4,0.3-0.8,0.5-1.3L5,8.9C4.7,8.5,4.7,7.8,5.1,7.4l2.3-2.3c0.4-0.4,1-0.5,1.5-0.2l2.3,1.4c0.4-0.2,0.8-0.4,1.3-0.5
	l0.7-2.6c0.1-0.6,0.6-0.9,1.2-0.9h3.2c0.6,0,1.1,0.4,1.2,0.9l0.7,2.6c0.3,0.1,0.7,0.2,1,0.4l2.7-1.3c0.5-0.2,1.1-0.1,1.4,0.2
	l2.3,2.3c0.4,0.4,0.5,1,0.2,1.4l-1.3,2.7c0.1,0.2,0.2,0.5,0.3,0.7l2.8,0.9c0.5,0.2,0.9,0.6,0.9,1.2v3.3c0,0.5-0.3,1-0.9,1.2
	l-2.8,0.9c-0.1,0.2-0.2,0.5-0.3,0.7l1.3,2.7c0.2,0.5,0.1,1.1-0.2,1.4l-2.3,2.3c-0.4,0.4-1,0.5-1.4,0.2l-2.7-1.3
	c-0.2,0.1-0.5,0.2-0.7,0.3l-0.9,2.8C18.7,29.4,18.2,29.8,17.6,29.8z M14.5,28.2h2.9l0.9-2.8c0.1-0.4,0.4-0.7,0.8-0.8
	c0.3-0.1,0.5-0.2,0.8-0.3c0.4-0.2,0.8-0.2,1.1,0l2.6,1.3l2.1-2.1L24.4,21c-0.2-0.3-0.2-0.7,0-1.1c0.1-0.2,0.2-0.5,0.3-0.8
	c0.1-0.4,0.4-0.6,0.8-0.8l2.8-0.9v-2.9l-2.8-0.9c-0.4-0.1-0.7-0.4-0.8-0.8c-0.1-0.3-0.2-0.5-0.3-0.8c-0.2-0.4-0.2-0.8,0-1.1l1.3-2.6
	l-2.1-2.1L21,7.6c-0.3,0.2-0.7,0.2-1.1,0c-0.3-0.2-0.7-0.3-1-0.4c-0.4-0.1-0.7-0.5-0.8-0.9l-0.6-2.6h-2.8l-0.6,2.6
	c-0.1,0.4-0.4,0.8-0.8,0.9c-0.4,0.1-0.9,0.3-1.3,0.5c-0.4,0.2-0.8,0.2-1.2,0L8.3,6.3l-2,2l1.4,2.3c0.2,0.4,0.2,0.8,0,1.2
	c-0.2,0.4-0.4,0.8-0.5,1.3c-0.1,0.4-0.5,0.7-0.9,0.8l-2.6,0.6v2.8l2.6,0.6c0.4,0.1,0.8,0.4,0.9,0.8c0.1,0.4,0.3,0.9,0.5,1.3
	c0.2,0.4,0.2,0.8,0,1.2l-1.4,2.3l2,2l2.3-1.4c0.4-0.2,0.8-0.2,1.2,0c0.3,0.2,0.7,0.3,1,0.4c0.4,0.1,0.7,0.4,0.8,0.8L14.5,28.2z
	 M12.2,26C12.2,26,12.2,26,12.2,26L12.2,26z M23.8,25.8L23.8,25.8L23.8,25.8z M20.6,25.7C20.6,25.7,20.6,25.7,20.6,25.7
	C20.6,25.7,20.6,25.7,20.6,25.7z M11.4,25.6L11.4,25.6C11.4,25.6,11.4,25.6,11.4,25.6z M25.7,20.6L25.7,20.6L25.7,20.6z M5.8,19.4
	C5.8,19.4,5.8,19.4,5.8,19.4C5.8,19.4,5.8,19.4,5.8,19.4z M6,12.5C6,12.5,6,12.5,6,12.5L6,12.5z M26,12.2L26,12.2
	C26,12.2,26,12.2,26,12.2z M25.7,11.4C25.7,11.4,25.7,11.4,25.7,11.4C25.7,11.4,25.7,11.4,25.7,11.4z M12.5,6C12.5,6,12.5,6,12.5,6
	L12.5,6z M19.4,5.8C19.4,5.8,19.4,5.8,19.4,5.8C19.4,5.8,19.4,5.8,19.4,5.8z M14.6,3.6L14.6,3.6L14.6,3.6L14.6,3.6z M13.9,3.4
	L13.9,3.4L13.9,3.4z"/>
<path class="st0" d="M16,21.8c-3.2,0-5.8-2.6-5.8-5.8c0-3.2,2.6-5.8,5.8-5.8c3.2,0,5.8,2.6,5.8,5.8C21.8,19.2,19.2,21.8,16,21.8z
	 M16,11.8c-2.3,0-4.2,1.9-4.2,4.2c0,2.3,1.9,4.2,4.2,4.2c2.3,0,4.2-1.9,4.2-4.2C20.2,13.7,18.3,11.8,16,11.8z"/>
</svg>
