<?xml version="1.0" encoding="utf-8"?>
<!-- Generator: Adobe Illustrator 28.1.0, SVG Export Plug-In . SVG Version: 6.00 Build 0)  -->
<svg version="1.1" id="Layer_1" xmlns="http://www.w3.org/2000/svg" xmlns:xlink="http://www.w3.org/1999/xlink" x="0px" y="0px"
	 viewBox="0 0 24 24" style="enable-background:new 0 0 24 24;" xml:space="preserve">
<style type="text/css">
	.st0{fill:none;stroke:#FFFFFF;stroke-width:1.1;stroke-miterlimit:10;}
	.st1{fill:none;stroke:#FFFFFF;stroke-width:1.1;stroke-linecap:round;stroke-linejoin:round;stroke-miterlimit:10;}
</style>
<path class="st0" d="M15.3,17.3H3.7V6.2c0-0.7,0.6-1.4,1.4-1.4H14c0.7,0,1.4,0.6,1.4,1.4L15.3,17.3L15.3,17.3z"/>
<path class="st0" d="M3.7,14.7c0-1.2,1-2.2,2.2-2.2h7.2c1.2,0,2.3,0.9,2.3,2.1"/>
<path class="st1" d="M15.7,11.1h1.5c0.6,0,1,0.4,1,1v9.6"/>
<path class="st1" d="M0.7,21.6v-9.5c0-0.6,0.4-1,1-1h1.8"/>
<line class="st1" x1="1.1" y1="20.1" x2="17.9" y2="20.2"/>
<line class="st1" x1="20.8" y1="8" x2="20.8" y2="21.7"/>
<polygon class="st1" points="23.4,7.8 17.9,7.8 19,2.7 22.3,2.7 "/>
</svg>
