<?xml version="1.0" encoding="utf-8"?>
<!-- Generator: Adobe Illustrator 28.1.0, SVG Export Plug-In . SVG Version: 6.00 Build 0)  -->
<svg version="1.1" id="Layer_1" xmlns="http://www.w3.org/2000/svg" xmlns:xlink="http://www.w3.org/1999/xlink" x="0px" y="0px"
	 viewBox="0 0 28.3 24.1" style="enable-background:new 0 0 28.3 24.1;" xml:space="preserve">
<style type="text/css">
	.st0{fill:none;stroke:#222125;stroke-width:1.2;stroke-miterlimit:10;}
	.st1{fill:none;stroke:#222125;stroke-width:1.2;stroke-linecap:round;stroke-linejoin:round;stroke-miterlimit:10;}
</style>
<path class="st0" d="M18.4,17.5H3.8V6.3C3.8,5.6,4.4,5,5.1,5H17c0.7,0,1.4,0.6,1.4,1.4V17.5z"/>
<path class="st0" d="M3.8,14.9c0-1.2,1-2.2,2.2-2.2h10.3c1.2,0,2.2,1,2.2,2.2"/>
<path class="st1" d="M18.8,9.2h1.5c0.6,0,1,0.4,1,1v11.6"/>
<path class="st1" d="M0.8,21.8V10.2c0-0.6,0.4-1,1-1h1.8"/>
<line class="st1" x1="1.2" y1="20.2" x2="21" y2="20.3"/>
<line class="st1" x1="24.7" y1="6.1" x2="24.7" y2="21.7"/>
<polygon class="st1" points="27.5,5.9 22,5.9 23.1,0.8 26.4,0.8 "/>
<line class="st1" x1="23" y1="21.8" x2="26.6" y2="21.8"/>
</svg>
